# xmcd
#
# Track frame offsets:
#	150
#	19058
#	39108
#	53667
#	72545
#	86936
#	101824
#	120881
#	139281
#	155708
#	169872
#	185546
#	204583
#	224836
#
# Disc length: 3216 seconds
#
# Revision: 0
# Processed by: cddbd v1.5.2PL0 Copyright (c) Steve Scherf et al.
# Submitted via: EasyCDDAExtractor 8.2.3.1
#
DISCID=d00c8e0e
DTITLE=BEVERLEY SKEETE - Unchained
DYEAR=2007
DGENRE=Blues
TTITLE0=Run Through The Jungle
TTITLE1=On The Road Again
TTITLE2=Born Under A Bad Sign
TTITLE3=Unchain My Heart
TTITLE4=Crawling Up A Hill
TTITLE5=I'm In Love
TTITLE6=You Got Me Running
TTITLE7=Heart Of Gold
TTITLE8=Black Magic Woman
TTITLE9=Don't Need No Doctor
TTITLE10=Midnight Rider
TTITLE11=Helpless
TTITLE12=It Ain't Easy
TTITLE13=Ain't No Love (In The Heart Of The City)
EXTD=
EXTT0=
EXTT1=
EXTT2=
EXTT3=
EXTT4=
EXTT5=
EXTT6=
EXTT7=
EXTT8=
EXTT9=
EXTT10=
EXTT11=
EXTT12=
EXTT13=
PLAYORDER=
